<svg width="120" height="40" viewBox="0 0 120 40" fill="none" xmlns="http://www.w3.org/2000/svg">
  <path d="M2 10.8528L16.5146 0L22.5623 4.52201V2.41171H27.4005V8.13952L31.0291 10.8528V30.6456C31.0291 33.0338 29.1037 34.9699 26.7285 34.9699L24.3767 34.9701C24.1751 35.9749 24.3767 38.3465 26.7958 39.7935C25.2934 40.355 21.6566 40.0796 18.428 34.9699H6.30061C3.92542 34.9699 2 33.0338 2 30.6456V10.8528Z" fill="url(#paint0_linear_128_27)"/>
  <path fill-rule="evenodd" clip-rule="evenodd" d="M42.8704 11.1291C42.0305 11.1391 41.1861 11.1491 40.3359 11.1491V30.8595H43.426V23.2004C43.703 23.2004 43.9739 23.2016 44.2404 23.2027C44.902 23.2055 45.5365 23.2082 46.1711 23.1929C46.5138 23.1854 46.7074 23.3031 46.8732 23.5866C47.4083 24.5027 47.9554 25.4095 48.5026 26.3165C48.6985 26.6412 48.8944 26.9658 49.0897 27.291L51.5155 31.3302L51.9307 31.0987C52.6675 30.6881 53.3859 30.2877 54.1359 29.8668L49.9521 22.8827C50.0729 22.8282 50.1782 22.7824 50.2755 22.7402C50.3574 22.7046 50.4336 22.6715 50.5085 22.6378C51.7541 22.0828 52.776 21.1505 53.4176 19.9836C54.0592 18.8168 54.2849 17.4798 54.0603 16.1778C53.5952 13.5239 51.2963 11.3246 48.52 11.1791C46.6487 11.0841 44.7709 11.1065 42.8704 11.1291ZM43.6441 20.2256C43.5704 20.2148 43.4981 20.1969 43.4282 20.1721L43.4249 14.1368C43.4805 14.1313 43.5337 14.1244 43.5853 14.1178L43.5853 14.1178C43.6842 14.105 43.7771 14.093 43.8699 14.093C44.3028 14.093 44.7357 14.0918 45.1686 14.0906C46.0342 14.0882 46.8996 14.0858 47.7645 14.093C49.6161 14.1079 51.0626 15.4601 51.0626 17.1716C51.0626 18.8585 49.6372 20.2202 47.8146 20.2406C46.7942 20.2523 45.772 20.2433 44.7502 20.2343H44.7502H44.7502H44.7501H44.7501L44.7496 20.2343C44.381 20.2311 44.0124 20.2278 43.6441 20.2256ZM116.957 16.7362H113.89L113.888 17.3395C113.888 18.2126 113.889 19.0859 113.89 19.9593C113.892 21.7062 113.893 23.4535 113.888 25.2007C113.886 26.2212 113.52 27.1144 112.63 27.6963C111.347 28.5393 109.934 28.5607 108.556 27.9573C107.259 27.3883 106.831 26.28 106.831 24.9697V17.3224V16.7351H103.866C103.861 16.7915 103.855 16.8454 103.85 16.8975C103.838 17.0137 103.827 17.1212 103.827 17.2282C103.82 19.9032 103.82 22.5774 103.827 25.251C103.818 25.6074 103.845 25.9638 103.907 26.3153C104.566 29.5512 107.874 31.7773 111.259 31.2242C111.86 31.126 112.448 30.9496 113.034 30.7736L113.034 30.7735C113.304 30.6926 113.573 30.6117 113.844 30.5385C114.155 32.51 113.042 34.689 111.082 35.6603C108.507 36.9375 106.631 35.764 104.974 33.8867L102.504 35.5597C102.536 35.637 102.573 35.7124 102.615 35.7854C104.543 38.7977 108.797 40.0856 112.136 38.5966C115.296 37.1878 116.931 34.7382 116.973 31.4018C117.013 28.0882 117.004 24.7746 116.995 21.461C116.992 20.0679 116.988 18.6748 116.988 17.2817C116.988 17.1692 116.98 17.0567 116.971 16.9372C116.966 16.8726 116.961 16.806 116.957 16.7362ZM68.5257 25.3281H58.6136C58.7603 26.166 59.22 26.9237 59.9065 27.4589C61.0526 28.3778 63.2558 28.8763 64.8849 27.5734C65.2532 27.2792 65.5325 27.2952 65.903 27.5231C66.3834 27.8164 66.8731 28.0949 67.3779 28.382C67.5911 28.5033 67.807 28.6261 68.0261 28.7522C66.979 29.9674 65.7239 30.7793 64.1738 31.1055C59.5393 32.0768 55.459 28.934 55.4123 24.3664C55.4109 24.2137 55.4087 24.0606 55.4065 23.9074L55.4065 23.9071L55.4065 23.9069L55.4065 23.9067V23.9066V23.9066V23.9066C55.3947 23.0783 55.3829 22.2452 55.4946 21.4311C55.8384 18.9323 57.9025 16.9662 60.651 16.4035C63.4539 15.8302 66.4894 17.147 67.788 19.6009C68.1697 20.3492 68.4094 21.157 68.4957 21.9863C68.5785 22.7357 68.5606 23.4928 68.5421 24.2786V24.2786V24.2786V24.2787C68.5339 24.6224 68.5257 24.9716 68.5257 25.3281ZM65.4446 22.2987C65.5269 20.4919 63.9546 19.1965 61.836 19.2532C59.8387 19.3078 58.3409 20.6588 58.4978 22.2987H65.4446ZM70.6121 30.8616H73.6776L73.6732 30.2048C73.6732 29.5218 73.6711 28.8388 73.669 28.1558C73.6634 26.2908 73.6577 24.4257 73.6943 22.5607C73.7136 21.9413 73.8735 21.3334 74.1628 20.7796C74.8315 19.5088 76.5896 18.9558 78.2999 19.374C79.801 19.741 80.7234 20.8085 80.7368 22.2975C80.7544 24.1961 80.7512 26.0947 80.7481 27.9932C80.7469 28.7315 80.7457 29.4697 80.7457 30.208V30.8595H83.7845V30.3096C83.789 27.6903 83.789 25.0709 83.7845 22.4516C83.7778 18.7376 80.3117 15.8194 76.4939 16.3543C75.8531 16.445 75.2263 16.6258 74.5993 16.8067C74.3097 16.8902 74.02 16.9738 73.7288 17.0485C73.7104 17.0327 73.6876 17.0041 73.6618 16.9716L73.6618 16.9716L73.6617 16.9715C73.6005 16.8945 73.5222 16.7961 73.444 16.7961C72.7231 16.7772 72.005 16.7791 71.2783 16.781H71.2783H71.2783C71.0571 16.7816 70.8351 16.7822 70.6121 16.7822V30.8616ZM88.8162 19.757H85.3066C85.3066 19.5492 85.3061 19.3437 85.3056 19.1399C85.3037 18.414 85.3019 17.71 85.3245 17.0068C85.3245 16.9244 85.5815 16.7854 85.7217 16.7811C86.5562 16.7597 87.3908 16.7468 88.2242 16.7811C88.7005 16.7993 88.8318 16.627 88.814 16.1949C88.7977 15.8098 88.801 15.4244 88.8042 15.0389C88.807 14.7111 88.8098 14.3833 88.8006 14.0555C88.7906 13.7046 88.8807 13.5367 89.2902 13.5484C89.8841 13.5649 90.4786 13.5615 91.0934 13.5579C91.3575 13.5564 91.6253 13.5548 91.8984 13.5548V16.7714H94.6658C95.4235 16.7714 95.4246 16.7714 95.4246 17.4935V19.7399H91.9274V30.8648H88.8117L88.8162 19.757ZM98.1208 30.8616H101.136V11.1791H98.1208V30.8616Z" fill="#24272A"/>
  <defs>
    <linearGradient id="paint0_linear_128_27" x1="2" y1="24.4444" x2="31.0291" y2="24.4444" gradientUnits="userSpaceOnUse">
      <stop stop-color="#FE7D24"/>
      <stop offset="1" stop-color="#FF5100"/>
    </linearGradient>
  </defs>
</svg>
